<svg width="10" height="8" viewBox="0 0 10 8" fill="none" xmlns="http://www.w3.org/2000/svg">
<path d="M0.714286 4.66373L7.85714 4.66373L5.50714 6.85865C5.44019 6.92067 5.38706 6.99446 5.35079 7.07575C5.31453 7.15705 5.29586 7.24425 5.29586 7.33232C5.29586 7.4204 5.31453 7.5076 5.35079 7.58889C5.38706 7.67019 5.44019 7.74398 5.50714 7.806C5.64097 7.93026 5.82201 8 6.01071 8C6.19942 8 6.38046 7.93026 6.51429 7.806L9.57857 4.93727C9.84685 4.68819 9.99841 4.34989 10 3.99659C9.99652 3.6456 9.84511 3.31003 9.57857 3.06258L6.51429 0.193848C6.44769 0.132082 6.36871 0.0831736 6.28188 0.0499139C6.19504 0.0166541 6.10204 -0.000305459 6.00819 4.29153e-06C5.91434 0.000314042 5.82147 0.0178871 5.73488 0.0517192C5.6483 0.0855513 5.5697 0.13498 5.50357 0.197184C5.43744 0.259388 5.38508 0.333149 5.34947 0.414255C5.31386 0.49536 5.2957 0.582223 5.29603 0.669882C5.29636 0.757542 5.31518 0.844281 5.3514 0.925149C5.38762 1.00602 5.44054 1.07943 5.50714 1.1412L7.85714 3.32944L0.714286 3.32944C0.524845 3.32944 0.343163 3.39973 0.209208 3.52484C0.0752539 3.64996 0 3.81965 0 3.99659C0 4.17353 0.0752539 4.34322 0.209208 4.46833C0.343163 4.59345 0.524845 4.66373 0.714286 4.66373Z" fill="#383838"/>
</svg>
