<svg width="512" height="458" viewBox="0 0 512 458" fill="none" xmlns="http://www.w3.org/2000/svg">
<path d="M508.181 211.528C487.571 166.829 457.382 127.208 419.755 95.4747L484.438 30.792L454.251 0.583984L384 70.7707C345.117 48.2793 300.918 36.618 256 37C96.0002 37 22.5495 170.568 3.81885 211.528C1.30447 217.017 0.00292969 222.984 0.00292969 229.021C0.00292969 235.059 1.30447 241.026 3.81885 246.515C24.4298 291.214 54.6182 330.834 92.2455 362.568L27.5842 427.251L57.7495 457.416L128 387.229C166.883 409.721 211.083 421.382 256 421C416 421 489.451 287.432 508.181 246.472C510.691 240.989 511.99 235.03 511.99 229C511.99 222.97 510.691 217.011 508.181 211.528ZM42.6669 229.235C58.6669 194.141 121.451 79.6667 256 79.6667C289.485 79.4709 322.531 87.2827 352.384 102.451L314.731 140.104C294.249 126.506 269.694 120.413 245.232 122.859C220.769 125.305 197.907 136.139 180.523 153.523C163.139 170.906 152.305 193.769 149.859 218.232C147.413 242.694 153.506 267.249 167.104 287.731L122.752 332.083C88.6268 304.294 61.2455 269.13 42.6669 229.235ZM320 229C320 245.974 313.257 262.253 301.255 274.255C289.253 286.257 272.974 293 256 293C246.496 292.963 237.124 290.775 228.587 286.6L313.6 201.587C317.775 210.124 319.963 219.496 320 229ZM192 229C192 212.026 198.743 195.747 210.745 183.745C222.748 171.743 239.026 165 256 165C265.504 165.037 274.876 167.225 283.414 171.4L198.4 256.413C194.225 247.876 192.037 238.504 192 229ZM256 378.333C222.515 378.529 189.469 370.717 159.616 355.549L197.27 317.896C217.751 331.494 242.306 337.587 266.769 335.141C291.231 332.695 314.094 321.861 331.477 304.477C348.861 287.094 359.695 264.231 362.141 239.768C364.587 215.306 358.494 190.751 344.896 170.269L389.227 125.939C423.419 153.753 450.817 189.001 469.334 229C453.035 264.349 390.23 378.333 256 378.333Z" fill="#818181"/>
</svg>
