<svg width="20" height="20" viewBox="0 0 20 20" fill="none" xmlns="http://www.w3.org/2000/svg">
<path d="M12.6378 20C12.4607 20 12.2884 19.9474 12.1467 19.85L8.87291 17.6C8.77126 17.5301 8.68876 17.4396 8.63194 17.3354C8.57512 17.2313 8.54553 17.1164 8.54553 17V12.785L2.80333 6.86525C2.39552 6.44366 2.12925 5.92311 2.03652 5.36618C1.94379 4.80924 2.02855 4.23961 2.28061 3.72576C2.53268 3.21191 2.94132 2.77569 3.45742 2.46955C3.97352 2.1634 4.57512 2.00036 5.18992 2H16.8118C17.4266 2.00066 18.028 2.16398 18.5439 2.47033C19.0598 2.77668 19.4682 3.21303 19.72 3.72694C19.9718 4.24085 20.0563 4.81046 19.9633 5.36731C19.8703 5.92416 19.6039 6.44457 19.1959 6.866L13.4562 12.785V19.25C13.4562 19.4489 13.37 19.6397 13.2165 19.7803C13.063 19.921 12.8548 20 12.6378 20ZM10.1824 16.625L11.8193 17.75V12.5C11.8195 12.3164 11.8932 12.1392 12.0264 12.002L17.9748 5.86925C18.1732 5.66381 18.3026 5.41028 18.3476 5.13909C18.3925 4.8679 18.3511 4.59058 18.2283 4.34042C18.1056 4.09026 17.9066 3.87789 17.6553 3.72882C17.404 3.57974 17.1112 3.50029 16.8118 3.5H5.18992C4.89073 3.50042 4.59804 3.57991 4.34692 3.72895C4.09581 3.87799 3.89694 4.09025 3.77418 4.34026C3.65141 4.59028 3.60996 4.86744 3.65478 5.13851C3.69961 5.40958 3.82882 5.66304 4.02691 5.8685L9.97617 12.002C10.1091 12.1393 10.1825 12.3165 10.1824 12.5V16.625Z" fill="#5A5A5A"/>
</svg>
