<svg width="25" height="25" viewBox="0 0 25 25" fill="none" xmlns="http://www.w3.org/2000/svg">
<g clip-path="url(#clip0_2097_43)">
<path d="M25 12.5C25 10.0277 24.2669 7.61098 22.8934 5.55537C21.5199 3.49976 19.5676 1.8976 17.2835 0.951505C14.9995 0.00540939 12.4861 -0.242132 10.0614 0.240183C7.63661 0.722498 5.40932 1.91301 3.66116 3.66116C1.91301 5.40932 0.722498 7.63661 0.240183 10.0614C-0.242132 12.4861 0.00540939 14.9995 0.951505 17.2835C1.8976 19.5676 3.49976 21.5199 5.55537 22.8934C7.61098 24.2669 10.0277 25 12.5 25C15.8141 24.9964 18.9914 23.6783 21.3349 21.3349C23.6783 18.9914 24.9964 15.8141 25 12.5ZM6.86042 13.9729C6.46985 13.5822 6.25044 13.0524 6.25044 12.5C6.25044 11.9476 6.46985 11.4178 6.86042 11.0271L11.2802 6.60729L12.7531 8.08021L9.375 11.4583L18.75 11.4583V13.5417L9.375 13.5417L12.7531 16.9198L11.2802 18.3927L6.86042 13.9729Z" fill="white"/>
</g>
<defs>
<clipPath id="clip0_2097_43">
<rect width="25" height="25" fill="white" transform="matrix(-1 0 0 -1 25 25)"/>
</clipPath>
</defs>
</svg>
