<svg width="16" height="16" viewBox="0 0 16 16" fill="none" xmlns="http://www.w3.org/2000/svg">
<g clip-path="url(#clip0_20_563)">
<path d="M0.884795 8.26666L3.25813 9.99999L2.3568 12.7913C2.21114 13.2242 2.20929 13.6927 2.35153 14.1267C2.49378 14.5608 2.77249 14.9372 3.14613 15.2C3.51336 15.4712 3.95839 15.6165 4.4149 15.6142C4.87141 15.6119 5.31496 15.4622 5.67946 15.1873L8.00013 13.4793L10.3215 15.1853C10.688 15.455 11.1307 15.6014 11.5857 15.6036C12.0408 15.6058 12.4848 15.4637 12.854 15.1977C13.2232 14.9316 13.4985 14.5554 13.6403 14.123C13.7822 13.6906 13.7833 13.2244 13.6435 12.7913L12.7421 9.99999L15.1155 8.26666C15.4816 7.999 15.7537 7.62249 15.893 7.19092C16.0324 6.75934 16.0317 6.29478 15.8912 5.86358C15.7508 5.43238 15.4776 5.05661 15.1108 4.78993C14.744 4.52325 14.3023 4.3793 13.8488 4.37866H10.9335L10.0488 1.62132C9.90968 1.1873 9.63631 0.808666 9.26811 0.540033C8.89991 0.271401 8.45591 0.126648 8.00013 0.126648C7.54435 0.126648 7.10035 0.271401 6.73215 0.540033C6.36395 0.808666 6.09058 1.1873 5.95146 1.62132L5.0668 4.37866H2.15413C1.70062 4.3793 1.25892 4.52325 0.892115 4.78993C0.525307 5.05661 0.252156 5.43238 0.111676 5.86358C-0.0288034 6.29478 -0.0294251 6.75934 0.1099 7.19092C0.249224 7.62249 0.521369 7.999 0.887462 8.26666H0.884795Z" fill="#DADADA"/>
</g>
<defs>
<clipPath id="clip0_20_563">
<rect width="16" height="16" fill="white"/>
</clipPath>
</defs>
</svg>
