<svg width="30" height="30" viewBox="0 0 30 30" fill="none" xmlns="http://www.w3.org/2000/svg">
<path d="M29.7951 10.7487C29.3726 9.4675 28.1151 7.97125 25.9614 7.97125H20.5014L18.8426 2.79875C18.1789 0.7325 16.3589 0 15.0014 0C13.6439 0 11.8239 0.73375 11.1614 2.8L9.50263 7.97125H4.03888C1.87263 7.97125 0.620134 9.47 0.208884 10.745C-0.216116 12.03 -0.0911161 13.9838 1.65888 15.26L6.11013 18.5137L4.42013 23.7438C3.75138 25.8088 4.79763 27.4663 5.89513 28.2538C6.50388 28.6938 7.35763 29.035 8.29388 29.035C9.05263 29.035 9.86638 28.8112 10.6464 28.2337L15.0001 25.0338L19.3514 28.2325C20.7764 29.2788 22.7439 29.245 24.0914 28.2625C25.1976 27.4725 26.2501 25.815 25.5789 23.7438L23.8889 18.5137L28.3389 15.2612C30.0826 13.99 30.2126 12.0387 29.7939 10.7487H29.7951ZM26.8664 13.2425L21.6851 17.0288C21.2489 17.3463 21.0676 17.9087 21.2339 18.4225L23.2014 24.5138C23.5301 25.5288 22.7901 26.12 22.6289 26.235C22.1214 26.605 21.4039 26.6375 20.8314 26.2188L15.7389 22.475C15.5189 22.3137 15.2589 22.2325 14.9989 22.2325V2.5C15.3364 2.5 16.1514 2.60375 16.4601 3.56375L18.3976 9.60375C18.5639 10.1213 19.0451 10.4712 19.5876 10.4712H25.9601C26.9626 10.4712 27.3139 11.2125 27.4176 11.5262C27.5214 11.845 27.6751 12.6512 26.8664 13.2425Z" fill="#FFA800"/>
</svg>
