<svg width="25" height="25" viewBox="0 0 25 25" fill="none" xmlns="http://www.w3.org/2000/svg">
<g clip-path="url(#clip0_20_270)">
<path d="M18.2291 1.99689C17.0561 2.01513 15.9087 2.34257 14.9028 2.94613C13.8969 3.54969 13.068 4.408 12.4999 5.43439C11.9318 4.408 11.103 3.54969 10.097 2.94613C9.0911 2.34257 7.94372 2.01513 6.77075 1.99689C4.9009 2.07813 3.13919 2.89611 1.87052 4.27213C0.601853 5.64815 -0.0706576 7.47035 -8.41375e-05 9.34064C-8.41375e-05 14.0771 4.98533 19.25 9.16658 22.7573C10.1001 23.5418 11.2805 23.9719 12.4999 23.9719C13.7193 23.9719 14.8997 23.5418 15.8332 22.7573C20.0145 19.25 24.9999 14.0771 24.9999 9.34064C25.0705 7.47035 24.398 5.64815 23.1293 4.27213C21.8606 2.89611 20.0989 2.07813 18.2291 1.99689Z" fill="#FF0000"/>
</g>
<defs>
<clipPath id="clip0_20_270">
<rect width="25" height="25" fill="white"/>
</clipPath>
</defs>
</svg>
