<svg width="50" height="50" viewBox="0 0 50 50" fill="none" xmlns="http://www.w3.org/2000/svg">
<g clip-path="url(#clip0_15_90)">
<path d="M36.4583 3.99365C34.1124 4.03014 31.8176 4.68501 29.8057 5.89213C27.7938 7.09925 26.1361 8.81588 25 10.8687C23.8638 8.81588 22.2061 7.09925 20.1942 5.89213C18.1823 4.68501 15.8876 4.03014 13.5416 3.99365C9.80192 4.15613 6.27851 5.7921 3.74117 8.54414C1.20383 11.2962 -0.141193 14.9406 -4.62038e-05 18.6812C-4.62038e-05 28.1541 9.97079 38.4999 18.3333 45.5145C20.2004 47.0835 22.5611 47.9437 25 47.9437C27.4388 47.9437 29.7995 47.0835 31.6666 45.5145C40.0291 38.4999 50 28.1541 50 18.6812C50.1411 14.9406 48.7961 11.2962 46.2587 8.54414C43.7214 5.7921 40.198 4.15613 36.4583 3.99365ZM28.9895 42.327C27.8728 43.2674 26.4599 43.783 25 43.783C23.5401 43.783 22.1271 43.2674 21.0104 42.327C10.3062 33.3457 4.16662 24.7291 4.16662 18.6812C4.02421 16.0451 4.92988 13.4598 6.68613 11.4889C8.44237 9.51796 10.9067 8.32147 13.5416 8.16032C16.1766 8.32147 18.6409 9.51796 20.3971 11.4889C22.1534 13.4598 23.059 16.0451 22.9166 18.6812C22.9166 19.2337 23.1361 19.7636 23.5268 20.1543C23.9175 20.545 24.4474 20.7645 25 20.7645C25.5525 20.7645 26.0824 20.545 26.4731 20.1543C26.8638 19.7636 27.0833 19.2337 27.0833 18.6812C26.9409 16.0451 27.8466 13.4598 29.6028 11.4889C31.359 9.51796 33.8234 8.32147 36.4583 8.16032C39.0932 8.32147 41.5575 9.51796 43.3138 11.4889C45.07 13.4598 45.9757 16.0451 45.8333 18.6812C45.8333 24.7291 39.6937 33.3457 28.9895 42.3187V42.327Z"/>
</g>
<defs>
<clipPath id="clip0_15_90">
<rect width="50" height="50" fill="white"/>
</clipPath>
</defs>
</svg>
