<svg width="512" height="512" viewBox="0 0 512 512" fill="none" xmlns="http://www.w3.org/2000/svg">
<g clip-path="url(#clip0_2074_10)">
<path d="M496.448 200.939C463.36 147.051 388.096 56.6399 256 56.6399C123.904 56.6399 48.6401 147.051 15.5521 200.939C5.32338 217.483 -0.0947266 236.549 -0.0947266 256C-0.0947266 275.451 5.32338 294.517 15.5521 311.061C48.6401 364.949 123.904 455.36 256 455.36C388.096 455.36 463.36 364.949 496.448 311.061C506.677 294.517 512.095 275.451 512.095 256C512.095 236.549 506.677 217.483 496.448 200.939ZM460.075 288.725C431.659 334.933 367.339 412.693 256 412.693C144.661 412.693 80.3415 334.933 51.9255 288.725C45.8483 278.892 42.6295 267.56 42.6295 256C42.6295 244.44 45.8483 233.108 51.9255 223.275C80.3415 177.067 144.661 99.3066 256 99.3066C367.339 99.3066 431.659 176.981 460.075 223.275C466.152 233.108 469.371 244.44 469.371 256C469.371 267.56 466.152 278.892 460.075 288.725Z" fill="#818181"/>
<path d="M256 149.333C234.903 149.333 214.28 155.589 196.739 167.31C179.198 179.031 165.526 195.69 157.453 215.18C149.379 234.671 147.267 256.118 151.383 276.81C155.498 297.501 165.657 316.507 180.575 331.425C195.493 346.342 214.499 356.501 235.19 360.617C255.881 364.733 277.329 362.62 296.819 354.547C316.31 346.474 332.969 332.802 344.69 315.261C356.411 297.72 362.666 277.097 362.666 256C362.633 227.721 351.384 200.609 331.387 180.613C311.39 160.616 284.279 149.367 256 149.333ZM256 320C243.342 320 230.968 316.246 220.443 309.214C209.918 302.182 201.715 292.186 196.871 280.492C192.027 268.797 190.76 255.929 193.229 243.514C195.699 231.099 201.794 219.696 210.745 210.745C219.695 201.795 231.099 195.699 243.514 193.23C255.929 190.76 268.797 192.028 280.491 196.872C292.186 201.716 302.181 209.919 309.214 220.443C316.246 230.968 320 243.342 320 256C320 272.974 313.257 289.252 301.255 301.255C289.252 313.257 272.974 320 256 320Z" fill="#818181"/>
</g>
<defs>
<clipPath id="clip0_2074_10">
<rect width="512" height="512" fill="white"/>
</clipPath>
</defs>
</svg>
