<svg width="26" height="26" viewBox="0 0 26 26" fill="none" xmlns="http://www.w3.org/2000/svg">
<g clip-path="url(#clip0_21_54)">
<path d="M13 13C14.2856 13 15.5423 12.6188 16.6112 11.9045C17.6801 11.1903 18.5132 10.1751 19.0052 8.98742C19.4972 7.7997 19.6259 6.49276 19.3751 5.23189C19.1243 3.97101 18.5052 2.81282 17.5962 1.90378C16.6872 0.994737 15.529 0.375672 14.2681 0.124868C13.0072 -0.125936 11.7003 0.00278584 10.5126 0.494755C9.32484 0.986725 8.30968 1.81985 7.59545 2.88877C6.88122 3.95769 6.5 5.21439 6.5 6.49997C6.50172 8.22335 7.18709 9.87565 8.40571 11.0943C9.62432 12.3129 11.2766 12.9983 13 13ZM13 2.16664C13.8571 2.16664 14.6949 2.42078 15.4075 2.89694C16.1201 3.37309 16.6755 4.04986 17.0035 4.84168C17.3315 5.63349 17.4173 6.50478 17.2501 7.34536C17.0829 8.18595 16.6702 8.95807 16.0641 9.5641C15.4581 10.1701 14.686 10.5828 13.8454 10.75C13.0048 10.9172 12.1335 10.8314 11.3417 10.5035C10.5499 10.1755 9.87312 9.62006 9.39697 8.90744C8.92081 8.19483 8.66667 7.35703 8.66667 6.49997C8.66667 5.3507 9.12321 4.2485 9.93587 3.43584C10.7485 2.62319 11.8507 2.16664 13 2.16664Z" />
<path d="M13 15.1667C10.415 15.1695 7.93673 16.1977 6.10888 18.0255C4.28102 19.8534 3.25287 22.3317 3.25 24.9167C3.25 25.204 3.36414 25.4795 3.5673 25.6827C3.77047 25.8859 4.04602 26 4.33333 26C4.62065 26 4.8962 25.8859 5.09937 25.6827C5.30253 25.4795 5.41667 25.204 5.41667 24.9167C5.41667 22.9054 6.21562 20.9766 7.63777 19.5544C9.05992 18.1323 10.9888 17.3333 13 17.3333C15.0112 17.3333 16.9401 18.1323 18.3622 19.5544C19.7844 20.9766 20.5833 22.9054 20.5833 24.9167C20.5833 25.204 20.6975 25.4795 20.9006 25.6827C21.1038 25.8859 21.3793 26 21.6667 26C21.954 26 22.2295 25.8859 22.4327 25.6827C22.6359 25.4795 22.75 25.204 22.75 24.9167C22.7471 22.3317 21.719 19.8534 19.8911 18.0255C18.0633 16.1977 15.585 15.1695 13 15.1667Z" />
</g>
<defs>
<clipPath id="clip0_21_54">
<rect width="26" height="26" fill="white"/>
</clipPath>
</defs>
</svg>
