<svg width="512" height="512" viewBox="0 0 512 512" fill="none" xmlns="http://www.w3.org/2000/svg">
<path d="M493.205 18.816C485.556 11.0747 476.041 5.43688 465.577 2.44726C455.113 -0.542374 444.055 -0.782766 433.472 1.7493L92.1382 73.6426C72.4812 76.3385 53.9672 84.4688 38.6812 97.1181C23.3952 109.767 11.9444 126.433 5.61823 145.239C-0.707914 164.044 -1.65809 184.242 2.87471 203.559C7.4075 222.875 17.2432 240.542 31.2742 254.571L67.9249 291.2C69.9086 293.183 71.4817 295.538 72.5543 298.13C73.6268 300.721 74.1778 303.499 74.1756 306.304V373.888C74.2227 383.39 76.4101 392.76 80.5756 401.301L80.4049 401.451L80.9596 402.005C87.2105 414.573 97.42 424.738 110.016 430.933L110.57 431.488L110.72 431.317C119.261 435.483 128.63 437.67 138.133 437.717H205.717C211.371 437.713 216.796 439.953 220.8 443.947L257.429 480.576C267.253 490.509 278.947 498.4 291.835 503.793C304.723 509.186 318.551 511.976 332.522 512C344.165 511.986 355.728 510.083 366.762 506.368C385.396 500.249 401.949 489.046 414.554 474.02C427.159 458.995 435.315 440.747 438.101 421.333L510.101 79.2533C512.764 68.579 512.607 57.3956 509.645 46.8002C506.683 36.2049 501.018 26.5615 493.205 18.816ZM98.1329 261.077L61.4609 224.448C52.9216 216.114 46.9366 205.518 44.2083 193.902C41.4801 182.286 42.1218 170.133 46.0582 158.869C49.8747 147.314 56.9298 137.097 66.3846 129.435C75.8393 121.773 87.2958 116.987 99.3916 115.648L437.333 44.5013L116.8 365.077V306.304C116.832 297.906 115.199 289.585 111.995 281.822C108.791 274.059 104.079 267.008 98.1329 261.077ZM396.181 414.037C394.543 425.82 389.653 436.914 382.06 446.072C374.468 455.231 364.473 462.092 353.197 465.885C341.922 469.678 329.812 470.253 318.228 467.546C306.643 464.839 296.042 458.957 287.616 450.56L250.922 413.867C244.999 407.911 237.955 403.19 230.195 399.974C222.436 396.759 214.116 395.115 205.717 395.136H146.944L467.52 74.6666L396.181 414.037Z" fill="white"/>
</svg>
