<svg width="14" height="14" viewBox="0 0 14 14" fill="none" xmlns="http://www.w3.org/2000/svg">
<g clip-path="url(#clip0_24_1188)">
<path d="M0 13.4167V9.33333C0.001544 7.94142 0.555163 6.60696 1.53939 5.62272C2.52363 4.63849 3.85809 4.08487 5.25 4.08333H8.0675V3.15816C8.06755 2.92745 8.136 2.70194 8.2642 2.51013C8.3924 2.31832 8.57459 2.16882 8.78774 2.08054C9.00089 1.99226 9.23542 1.96915 9.4617 2.01415C9.68798 2.05914 9.89584 2.17022 10.059 2.33333L13.489 5.76275C13.8171 6.09092 14.0014 6.53596 14.0014 7C14.0014 7.46403 13.8171 7.90907 13.489 8.23725L10.059 11.6667C9.89584 11.8298 9.68798 11.9408 9.4617 11.9858C9.23542 12.0308 9.00089 12.0077 8.78774 11.9195C8.57459 11.8312 8.3924 11.6817 8.2642 11.4899C8.136 11.2981 8.06755 11.0725 8.0675 10.8418V9.91666H4.66667C3.73869 9.91759 2.84899 10.2866 2.19282 10.9428C1.53664 11.599 1.16759 12.4887 1.16667 13.4167C1.16667 13.5714 1.10521 13.7197 0.995812 13.8291C0.886416 13.9385 0.738043 14 0.583333 14C0.428624 14 0.280251 13.9385 0.170854 13.8291C0.0614582 13.7197 0 13.5714 0 13.4167ZM9.23417 4.66666C9.23417 4.82137 9.17271 4.96975 9.06331 5.07914C8.95392 5.18854 8.80554 5.25 8.65083 5.25H5.25C4.16741 5.25123 3.12952 5.68184 2.36401 6.44734C1.59851 7.21285 1.1679 8.25074 1.16667 9.33333V10.3332C1.60391 9.83555 2.14229 9.43693 2.74584 9.16392C3.34939 8.89091 4.00424 8.7498 4.66667 8.75H8.65083C8.80554 8.75 8.95392 8.81145 9.06331 8.92085C9.17271 9.03025 9.23417 9.17862 9.23417 9.33333V10.8418L12.6636 7.41241C12.7729 7.30302 12.8344 7.15468 12.8344 7C12.8344 6.84532 12.7729 6.69697 12.6636 6.58758L9.23417 3.15816V4.66666Z" fill="#373737"/>
</g>
<defs>
<clipPath id="clip0_24_1188">
<rect width="14" height="14" fill="white"/>
</clipPath>
</defs>
</svg>
