<svg width="18" height="29" viewBox="0 0 18 29" fill="none" xmlns="http://www.w3.org/2000/svg">
<path d="M13.4999 11.625C13.4012 11.6256 13.3033 11.6067 13.212 11.5693C13.1206 11.532 13.0375 11.477 12.9674 11.4075L9.5324 7.965C9.46267 7.89471 9.37972 7.83891 9.28833 7.80083C9.19693 7.76276 9.0989 7.74315 8.9999 7.74315C8.90089 7.74315 8.80286 7.76276 8.71146 7.80083C8.62007 7.83891 8.53712 7.89471 8.4674 7.965L5.0324 11.4075C4.89117 11.5487 4.69962 11.6281 4.4999 11.6281C4.30017 11.6281 4.10862 11.5487 3.96739 11.4075C3.82617 11.2663 3.74683 11.0747 3.74683 10.875C3.74683 10.7761 3.76631 10.6782 3.80415 10.5868C3.842 10.4954 3.89747 10.4124 3.96739 10.3425L7.4099 6.9075C7.83735 6.49683 8.40713 6.26747 8.9999 6.26747C9.59266 6.26747 10.1624 6.49683 10.5899 6.9075L14.0324 10.3425C14.1027 10.4122 14.1585 10.4952 14.1966 10.5866C14.2346 10.678 14.2542 10.776 14.2542 10.875C14.2542 10.974 14.2346 11.072 14.1966 11.1634C14.1585 11.2548 14.1027 11.3378 14.0324 11.4075C13.9623 11.477 13.8792 11.532 13.7878 11.5693C13.6964 11.6067 13.5986 11.6256 13.4999 11.625Z" fill="#5A5A5A"/>
<path d="M4.35435 18.2031C4.45306 18.2025 4.55091 18.2214 4.64228 18.2587C4.73366 18.2961 4.81677 18.3511 4.88685 18.4206L8.32185 21.8631C8.39157 21.9334 8.47453 21.9892 8.56592 22.0272C8.65731 22.0653 8.75534 22.0849 8.85435 22.0849C8.95336 22.0849 9.05139 22.0653 9.14279 22.0272C9.23418 21.9892 9.31713 21.9334 9.38685 21.8631L12.8219 18.4206C12.9631 18.2793 13.1546 18.2 13.3544 18.2C13.5541 18.2 13.7456 18.2793 13.8869 18.4206C14.0281 18.5618 14.1074 18.7533 14.1074 18.9531C14.1074 19.052 14.0879 19.1499 14.0501 19.2413C14.0123 19.3326 13.9568 19.4156 13.8869 19.4856L10.4444 22.9206C10.0169 23.3312 9.44712 23.5606 8.85435 23.5606C8.26159 23.5606 7.69181 23.3312 7.26435 22.9206L3.82185 19.4856C3.75156 19.4158 3.69576 19.3329 3.65768 19.2415C3.61961 19.1501 3.6 19.0521 3.6 18.9531C3.6 18.8541 3.61961 18.756 3.65768 18.6646C3.69576 18.5732 3.75156 18.4903 3.82185 18.4206C3.89193 18.3511 3.97504 18.2961 4.06642 18.2587C4.1578 18.2214 4.25565 18.2025 4.35435 18.2031Z" fill="#5A5A5A"/>
</svg>
