<svg width="14" height="14" viewBox="0 0 14 14" fill="none" xmlns="http://www.w3.org/2000/svg">
<g clip-path="url(#clip0_24_1168)">
<path d="M12.2503 2.33333H10.442C10.3066 1.67498 9.94839 1.08344 9.42772 0.658411C8.90706 0.233378 8.25578 0.000840843 7.58366 -7.62939e-06L6.41699 -7.62939e-06C5.74487 0.000840843 5.0936 0.233378 4.57293 0.658411C4.05226 1.08344 3.69405 1.67498 3.55866 2.33333H1.75033C1.59562 2.33333 1.44724 2.39478 1.33785 2.50418C1.22845 2.61358 1.16699 2.76195 1.16699 2.91666C1.16699 3.07137 1.22845 3.21974 1.33785 3.32914C1.44724 3.43853 1.59562 3.49999 1.75033 3.49999H2.33366V11.0833C2.33459 11.8566 2.64217 12.5979 3.18895 13.1447C3.73573 13.6915 4.47706 13.9991 5.25033 14H8.75033C9.52359 13.9991 10.2649 13.6915 10.8117 13.1447C11.3585 12.5979 11.6661 11.8566 11.667 11.0833V3.49999H12.2503C12.405 3.49999 12.5534 3.43853 12.6628 3.32914C12.7722 3.21974 12.8337 3.07137 12.8337 2.91666C12.8337 2.76195 12.7722 2.61358 12.6628 2.50418C12.5534 2.39478 12.405 2.33333 12.2503 2.33333ZM6.41699 1.16666H7.58366C7.94549 1.1671 8.29832 1.27946 8.59377 1.48833C8.88922 1.69721 9.11282 1.99236 9.23391 2.33333H4.76674C4.88783 1.99236 5.11143 1.69721 5.40688 1.48833C5.70234 1.27946 6.05517 1.1671 6.41699 1.16666ZM10.5003 11.0833C10.5003 11.5475 10.316 11.9926 9.98776 12.3208C9.65957 12.649 9.21445 12.8333 8.75033 12.8333H5.25033C4.7862 12.8333 4.34108 12.649 4.01289 12.3208C3.6847 11.9926 3.50033 11.5475 3.50033 11.0833V3.49999H10.5003V11.0833Z" fill="#373737"/>
<path d="M5.83333 10.5C5.98804 10.5 6.13642 10.4385 6.24581 10.3291C6.35521 10.2198 6.41667 10.0714 6.41667 9.91667V6.41667C6.41667 6.26196 6.35521 6.11359 6.24581 6.00419C6.13642 5.89479 5.98804 5.83334 5.83333 5.83334C5.67862 5.83334 5.53025 5.89479 5.42085 6.00419C5.31146 6.11359 5.25 6.26196 5.25 6.41667V9.91667C5.25 10.0714 5.31146 10.2198 5.42085 10.3291C5.53025 10.4385 5.67862 10.5 5.83333 10.5Z" fill="#373737"/>
<path d="M8.16634 10.5C8.32105 10.5 8.46942 10.4385 8.57882 10.3291C8.68822 10.2198 8.74967 10.0714 8.74967 9.91667V6.41667C8.74967 6.26196 8.68822 6.11359 8.57882 6.00419C8.46942 5.89479 8.32105 5.83334 8.16634 5.83334C8.01163 5.83334 7.86326 5.89479 7.75386 6.00419C7.64447 6.11359 7.58301 6.26196 7.58301 6.41667V9.91667C7.58301 10.0714 7.64447 10.2198 7.75386 10.3291C7.86326 10.4385 8.01163 10.5 8.16634 10.5Z" fill="#373737"/>
</g>
<defs>
<clipPath id="clip0_24_1168">
<rect width="14" height="14" fill="white"/>
</clipPath>
</defs>
</svg>
