<svg width="30" height="30" viewBox="0 0 30 30" fill="none" xmlns="http://www.w3.org/2000/svg">
<g clip-path="url(#clip0_21_218)">
<path d="M1.65875 15.4999L6.10875 18.7499L4.41875 23.9837C4.14564 24.7954 4.14218 25.6737 4.40888 26.4876C4.67559 27.3014 5.19818 28.0073 5.89875 28.4999C6.58731 29.0084 7.42174 29.2808 8.27769 29.2765C9.13364 29.2723 9.9653 28.9915 10.6487 28.4762L15 25.2737L19.3525 28.4724C20.0398 28.978 20.8697 29.2526 21.723 29.2568C22.5762 29.2609 23.4087 28.9944 24.101 28.4956C24.7932 27.9967 25.3094 27.2912 25.5754 26.4805C25.8413 25.6698 25.8434 24.7957 25.5812 23.9837L23.8912 18.7499L28.3412 15.4999C29.0277 14.9981 29.5379 14.2921 29.7992 13.4829C30.0604 12.6737 30.0592 11.8027 29.7958 10.9942C29.5324 10.1857 29.0203 9.4811 28.3325 8.98107C27.6448 8.48105 26.8166 8.21115 25.9662 8.20994H20.5L18.8412 3.03994C18.5804 2.22614 18.0678 1.51621 17.3775 1.01252C16.6871 0.508839 15.8546 0.237427 15 0.237427C14.1454 0.237427 13.3129 0.508839 12.6225 1.01252C11.9322 1.51621 11.4196 2.22614 11.1587 3.03994L9.5 8.20994H4.03875C3.18843 8.21115 2.36024 8.48105 1.67247 8.98107C0.984707 9.4811 0.472548 10.1857 0.209149 10.9942C-0.0542504 11.8027 -0.0554163 12.6737 0.205818 13.4829C0.467052 14.2921 0.977323 14.9981 1.66375 15.4999H1.65875Z" fill="#FFA800"/>
</g>
<defs>
<clipPath id="clip0_21_218">
<rect width="30" height="30" fill="white"/>
</clipPath>
</defs>
</svg>
