<svg width="200" height="200" viewBox="0 0 200 200" fill="none" xmlns="http://www.w3.org/2000/svg">
<rect width="200" height="200" rx="100" fill="white"/>
<path d="M39.84 114L58.16 86H62.12L69.2 114H65.24L59 88.16H60.6L44.16 114H39.84ZM46.64 107L48.4 103.8H64.12L64.68 107H46.64ZM79.9416 114.24C78.6616 114.24 77.5549 113.96 76.6216 113.4C75.7149 112.84 75.0616 112.04 74.6616 111C74.2882 109.96 74.2349 108.733 74.5016 107.32L78.3416 88.16H82.1816L78.3416 107.24C78.1549 108.387 78.2616 109.307 78.6616 110C79.0882 110.667 79.8749 111 81.0216 111C81.5549 111 82.0882 110.92 82.6216 110.76C83.1549 110.573 83.6349 110.32 84.0616 110L84.8616 112.92C84.1416 113.427 83.3416 113.773 82.4616 113.96C81.6082 114.147 80.7682 114.24 79.9416 114.24ZM73.1816 95.96L73.7816 92.8H87.3416L86.7016 95.96H73.1816ZM95.9572 114.24C94.6772 114.24 93.5705 113.96 92.6372 113.4C91.7305 112.84 91.0772 112.04 90.6772 111C90.3039 109.96 90.2505 108.733 90.5172 107.32L94.3572 88.16H98.1972L94.3572 107.24C94.1705 108.387 94.2772 109.307 94.6772 110C95.1039 110.667 95.8905 111 97.0372 111C97.5705 111 98.1039 110.92 98.6372 110.76C99.1705 110.573 99.6505 110.32 100.077 110L100.877 112.92C100.157 113.427 99.3572 113.773 98.4772 113.96C97.6239 114.147 96.7839 114.24 95.9572 114.24ZM89.1972 95.96L89.7972 92.8H103.357L102.717 95.96H89.1972ZM105.24 114L109.44 92.8H113.28L109.08 114H105.24ZM112.48 88.72C111.76 88.72 111.173 88.4933 110.72 88.04C110.293 87.5867 110.08 87.04 110.08 86.4C110.08 85.6533 110.333 85.0267 110.84 84.52C111.346 83.9867 112.013 83.72 112.84 83.72C113.533 83.72 114.106 83.9467 114.56 84.4C115.04 84.8267 115.28 85.3467 115.28 85.96C115.28 86.7867 115.026 87.4533 114.52 87.96C114.013 88.4667 113.333 88.72 112.48 88.72ZM116.412 114L120.612 92.8H124.292L123.092 98.96L122.692 97.44C123.678 95.6533 124.932 94.4 126.452 93.68C127.972 92.96 129.852 92.6 132.092 92.6L131.372 96.32C131.212 96.2933 131.052 96.28 130.892 96.28C130.732 96.28 130.558 96.28 130.372 96.28C128.265 96.28 126.518 96.8533 125.132 98C123.772 99.1467 122.852 100.947 122.372 103.4L120.252 114H116.412ZM142.469 114.24C140.389 114.24 138.589 113.867 137.069 113.12C135.549 112.347 134.376 111.28 133.549 109.92C132.722 108.533 132.309 106.907 132.309 105.04C132.309 102.64 132.829 100.507 133.869 98.64C134.909 96.7733 136.322 95.3067 138.109 94.24C139.922 93.1467 141.976 92.6 144.269 92.6C146.189 92.6 147.856 92.9733 149.269 93.72C150.682 94.44 151.776 95.48 152.549 96.84C153.349 98.2 153.749 99.84 153.749 101.76C153.749 102.24 153.722 102.733 153.669 103.24C153.616 103.72 153.549 104.173 153.469 104.6H135.109L135.589 101.8H151.629L150.069 102.76C150.309 101.267 150.202 100.013 149.749 99C149.296 97.96 148.576 97.1733 147.589 96.64C146.629 96.08 145.469 95.8 144.109 95.8C142.509 95.8 141.096 96.1867 139.869 96.96C138.669 97.7067 137.736 98.76 137.069 100.12C136.402 101.453 136.069 103.027 136.069 104.84C136.069 106.76 136.616 108.253 137.709 109.32C138.829 110.36 140.522 110.88 142.789 110.88C144.122 110.88 145.362 110.667 146.509 110.24C147.656 109.787 148.602 109.187 149.349 108.44L150.989 111.2C149.976 112.187 148.709 112.947 147.189 113.48C145.669 113.987 144.096 114.24 142.469 114.24Z" fill="black"/>
</svg>
